<svg width="32" height="32" viewBox="0 0 32 32" fill="none" xmlns="http://www.w3.org/2000/svg"><path d="M12.7143 6C12.7143 5.44772 12.2666 5 11.7143 5C11.162 5 10.7143 5.44772 10.7143 6H12.7143ZM10.7143 26C10.7143 26.5523 11.162 27 11.7143 27C12.2666 27 12.7143 26.5523 12.7143 26H10.7143ZM21.2857 6C21.2857 5.44772 20.838 5 20.2857 5C19.7334 5 19.2857 5.44772 19.2857 6H21.2857ZM19.2857 26C19.2857 26.5523 19.7334 27 20.2857 27C20.838 27 21.2857 26.5523 21.2857 26H19.2857ZM26 12.7143C26.5523 12.7143 27 12.2666 27 11.7143C27 11.162 26.5523 10.7143 26 10.7143V12.7143ZM6 10.7143C5.44772 10.7143 5 11.162 5 11.7143C5 12.2666 5.44772 12.7143 6 12.7143V10.7143ZM26 21.2857C26.5523 21.2857 27 20.838 27 20.2857C27 19.7334 26.5523 19.2857 26 19.2857V21.2857ZM6 19.2857C5.44772 19.2857 5 19.7334 5 20.2857C5 20.838 5.44772 21.2857 6 21.2857V19.2857ZM10.7143 6V26H12.7143V6H10.7143ZM26 10.7143H6V12.7143H26V10.7143ZM26 19.2857H6V21.2857H26V19.2857ZM19.2857 6V26H21.2857V6H19.2857Z" fill="currentColor"/></svg>